<svg xmlns="http://www.w3.org/2000/svg" width="543" height="77" viewBox="0 0 543 77">
    <path fill="#FFF" fill-rule="evenodd" d="M148.016 0v6.696h-4.158v7.069h-2.494v24.509h-4.575v-4.552h-5.82v6.652h-6.652V21.248l-2.494-2.496v-8.73h-13.721v6.236h-7.07v12.474h-3.326v-2.494H93.55l-2.496 2.494-1.081 1.08v28.856h-4.74V29.98h-4.156v-2.91H74.84v4.574h-5.82v7.42h-3.262V35.8h-1.793v3.263H56.13v1.792h7.835v9.497h-.766v7.899h-13.72v-7.899h-4.574v-9.146l-1.872-1.87v-4.783H35.34v12.89H24.946v8.314H10.81l-1.663-1.663H0v22.453h543V44.116h-2.494v-21.62h-22.035v27.025h-4.157v9.563h-10.396v-5.405h-12.407v-3.261h14.484v-1.794h-14.484v-4.3h-1.793v4.3h-2.846v.897h-3.326v-4.99h-7.07v4.99h-11.64v4.99h-12.889v-7.9h-2.078V40.79h-2.014v-9.082h18.227v-1.793h-18.227v-1.182h-1.794v1.182h-6.588v1.793h6.588v9.082h-8.667V52.43h-24.947V43.7h-2.428v-2.845h10.328v-1.792H410.02v-.79h-1.794v.79h-1.598v1.792h1.598V43.7h-7.42v4.924h-12.887v1.794h5.547v2.845h-8.041v4.158h-3.742v-2.08h-3.743V22.496h-2.495v-4.99h-7.9v38.667h-14.967V17.507h-6.236v3.325h-3.327v26.195h-5.406v7.067h-2.494v-7.067H324.72v-4.575h-4.574v-5.404h-4.158V24.99h-6.652v4.574h-16.632v17.463h-8.73v-5.82H273.58V29.563H247.8v13.72h-4.01v3.743h-2.64v-23.7h-2.911v-5.82h-4.99v4.99h-5.404v19.955h-2.494v4.575h-2.911V32.889h-20.373v11.643h-6.653v4.989h-3.743v2.91h-3.742v-3.326l-2.286-2.286v-5.197h-10.186v12.057h-3.743v-2.91h-4.156V17.507h-3.327V8.36h-3.742V3.786h-4.99V0h-7.483zM65.757 40.855h3.262v2.43h-2.911v7.067h-.35v-9.497zM486.872 53.68h2.846v-3.262h-2.846v3.262zm-91.613-.417h5.548v-2.845h-5.548v2.845z" opacity=".5"/>
</svg>
