<svg xmlns="http://www.w3.org/2000/svg" width="514" height="77" viewBox="0 0 514 77">
    <path fill="#FFF" fill-rule="evenodd" d="M119.016 0v6.735h-4.158v7.111h-2.494V38.5h-4.575v-4.579h-5.82v6.691h-6.652V21.373l-2.494-2.51v-8.782H79.102v6.274h-7.07v12.547h-3.326v-2.508H64.55l-2.496 2.508-1.081 1.087v29.026h-4.74V30.157h-4.156V27.23H45.84v4.6h-5.82v7.464h-3.262v-3.282h-1.793v3.282H27.13v1.802h7.835v9.554h-.766v7.946h-13.72V50.65h-4.574v-9.2l-1.872-1.881v-4.812H6.34v12.966H-4.054v8.364H-18.19l-1.663-1.672H-29V77h543V44.377h-2.494V22.629h-22.035v27.185h-4.157v9.62h-10.396v-5.438h-12.407v-3.28h14.484v-1.804h-14.484v-4.326h-1.793v4.326h-2.846v.902h-3.326v-5.019h-7.07v5.019h-11.64v5.019h-12.889v-7.946h-2.078v-5.856h-2.014v-9.136h18.227v-1.804h-18.227v-1.189h-1.794v1.189h-6.588v1.804h6.588v9.136h-8.667v11.71h-24.947v-8.782h-2.428v-2.863h10.328v-1.802H381.02v-.795h-1.794v.795h-1.598v1.802h1.598v2.863h-7.42v4.953h-12.887v1.804h5.547v2.862h-8.041v4.183h-3.742v-2.092h-3.743v-33.04h-2.495V17.61h-7.9v38.895h-14.967V17.61h-6.236v3.345h-3.327v26.35h-5.406v7.11h-2.494v-7.11H295.72v-4.602h-4.574v-5.435h-4.158v-12.13h-6.652v4.6h-16.632v17.567h-8.73V41.45H244.58V29.74H218.8V43.54h-4.01v3.764h-2.64v-23.84h-2.911V17.61h-4.99v5.02h-5.404v20.073h-2.494v4.602h-2.911V33.084h-20.373v11.711h-6.653v5.019h-3.743v2.927h-3.742v-3.345l-2.286-2.3v-5.228h-10.186v12.128h-3.743V51.07h-4.156V17.61h-3.327V8.41h-3.742v-4.6h-4.99V0h-7.483zM36.757 41.096h3.262v2.445h-2.911v7.11h-.35v-9.555zm421.115 12.902h2.846v-3.282h-2.846v3.282zm-91.613-.42h5.548v-2.862h-5.548v2.862z" opacity=".1"/>
</svg>
