<svg xmlns="http://www.w3.org/2000/svg" xmlns:xlink="http://www.w3.org/1999/xlink" width="180" height="25" viewBox="0 0 180 25">
    <defs>
        <path id="a" d="M15.086 17.67V.1H.088v17.57z"/>
    </defs>
    <g fill="none" fill-rule="evenodd">
        <path fill="#0280C3" fill-rule="nonzero" d="M61.075 8.804c-.6-.467-1.687-1.023-2.645-1.312a7.372 7.372 0 0 0-4.207-.017v.005l-2.854 1.005c-.487-.37-1.215-.746-1.982-.981a7.32 7.32 0 0 0-4.396.038l-.653.21-3.843 1.387a1.68 1.68 0 0 0-1.099 1.584v12.14c0 .927.738 1.668 1.648 1.668h1.647c.91 0 1.647-.74 1.647-1.668v-9.47c0-.155.094-.295.237-.35.57-.219 1.926-.789 2.392-.789 1.388 0 2.254 1.165 2.314 2.096v8.501c0 .928.737 1.68 1.647 1.68h1.647c.91 0 1.648-.752 1.648-1.68l.004-9.781c0-.176.108-.333.27-.395.577-.217 1.218-.432 1.508-.432.593 0 1.292.288 1.82.656.856.596 1.34 1.62 1.34 2.677v7.275c0 .928.737 1.68 1.647 1.68h1.624c.92 0 1.67-.766 1.67-1.703V15.57c0-2.779-.812-5.04-3.03-6.767l-.001.001zm61.049-.86a8.515 8.515 0 0 0-3.562-.769 7.44 7.44 0 0 0-2.365.355l-.653.211-3.94 1.55c-.633.251-1.097.873-1.097 1.565v11.995c0 .928.832 1.68 1.742 1.68h1.648c.91 0 1.552-.752 1.552-1.68v-9.47c0-.155.142-.295.285-.35.57-.219 1.949-.789 2.415-.789.689 0 1.419.174 2.05.43a1.65 1.65 0 0 0 2.17-.949l.623-1.638a1.694 1.694 0 0 0-.868-2.14v-.001zM29.398 19.54c-2.15 0-3.432-1.656-3.432-3.69s1.304-3.69 3.432-3.69c2.127 0 3.432 1.656 3.432 3.69s-1.281 3.69-3.432 3.69zm.008-12.517c-5.453 0-8.382 4.357-8.382 8.827s2.9 8.827 8.382 8.827c5.483 0 8.383-4.383 8.383-8.827s-2.929-8.827-8.383-8.827zm62.605 13.404c-.304-.797-1.145-1.26-1.955-1.039-1.11.305-2.296.232-2.8-.037-.884-.472-.91-1.197-.91-1.197V11.93h2.197c.91 0 1.647-.683 1.647-1.61V8.64c0-.928-.737-1.75-1.647-1.75h-2.197V3.04c0-.928-.737-1.75-1.647-1.75H83.05c-.91 0-1.647.822-1.647 1.75v14.89c0 .746-.09 3.736 2.326 5.53 1.039.773 2.283 1.164 3.774 1.164l.173-.002c1.772 0 3.006-.217 3.845-.473.922-.28 1.411-1.304 1.062-2.218l-.573-1.505.001.001zm38.997-7.022c-1.427-.31-2.471-.61-2.471-1.069 0-.585 1.052-.769 2.036-.734 1.289.045 2.146.402 3.11.922a1.645 1.645 0 0 0 2.199-.6l.71-1.19a1.658 1.658 0 0 0-.543-2.256c-1.09-.681-2.91-1.448-5.59-1.448-4.822 0-6.864 2.797-6.864 5.192 0 2.492 1.475 4.18 4.533 5.041 2.514.709 3.979 1.181 3.979 1.895 0 .569-.712.734-1.741.734-1.395 0-2.817-.635-3.853-1.255a1.647 1.647 0 0 0-2.198.462l-.898 1.28a1.653 1.653 0 0 0 .419 2.32c1.297.875 3.54 1.972 6.623 1.972 4.85 0 6.864-2.779 6.864-5.513 0-3.1-2.23-4.87-6.315-5.754v.001zm-57.612.035c-1.427-.31-2.471-.61-2.471-1.068 0-.586 1.052-.77 2.036-.735 1.289.045 2.146.402 3.109.923.777.42 1.745.158 2.2-.602l.71-1.189a1.658 1.658 0 0 0-.542-2.256c-1.09-.681-2.91-1.447-5.59-1.447-4.823 0-6.865 2.796-6.865 5.19 0 2.493 1.476 4.18 4.533 5.042 2.514.709 3.978 1.181 3.978 1.895 0 .569-.71.734-1.74.734-1.394 0-2.817-.635-3.853-1.255a1.647 1.647 0 0 0-2.198.462l-.898 1.28a1.654 1.654 0 0 0 .419 2.32c1.298.875 3.54 1.972 6.623 1.972 4.85 0 6.864-2.78 6.864-5.513 0-3.1-2.23-4.869-6.315-5.754v.001zm24.434 1.333c-.138.05-.276-.06-.276-.21 0-1.232.9-2.544 2.538-3.035 1.686-.506 3.066-.054 3.72.795a.214.214 0 0 1-.096.33l-5.886 2.12zm1.342 4.115L107.067 16c1.316-.481 1.887-1.951 1.654-3.357-.479-2.882-3.19-5.632-7.514-5.632-5.628 0-9.05 4.173-8.615 9.155.474 5.425 3.227 8.05 8.603 8.575 1.961.192 4.645-.327 5.88-.957.882-.449 1.264-1.241.873-2.163l-.61-1.44c-.345-.813-1.245-1.308-2.047-.97-1.053.443-3.958 1.61-6.14.065-.15-.106-.15-.325.021-.388z"/>
        <g transform="translate(164.591 6.924)">
            <mask id="b" fill="#fff">
                <use xlink:href="#a"/>
            </mask>
            <path fill="#0280C3" fill-rule="nonzero" d="M15.082 16.314c-.13-1.668.326-3.274-1.247-3.274l-6.452.098c-.438 0-1.737.448-1.43.128l7.529-7.506c.962-1.06 1.234-2.398.728-3.579-.54-1.264-1.848-2.08-3.328-2.08H1.231C.6.1.093.62.089 1.265v.011c-.005.764.025 1.531.027 2.297a1.152 1.152 0 0 0 1.141 1.159h5.35c.973 0 2.027-.593 2.344-.635L1.328 11.98C.33 13.077.041 14.448.555 15.647c.526 1.23 1.8 2.024 3.247 2.024h10.033c.734 0 1.305-.612 1.247-1.357" mask="url(#b)"/>
        </g>
        <path fill="#0280C3" fill-rule="nonzero" d="M142.409 18.759c-1.587 0-2.874 1.312-2.874 2.93 0 1.62 1.287 2.931 2.874 2.931 1.587 0 2.874-1.312 2.874-2.93 0-1.62-1.287-2.931-2.874-2.931m15.196-4.972a100.303 100.303 0 0 1 4.297-2.756c.671-.406.9-1.286.517-1.98l-.85-1.537a1.422 1.422 0 0 0-1.985-.542c-1.644.994-4.617 2.857-7.412 4.948V1.684c0-.886-.685-1.615-1.552-1.652-1.86-.081-3.756-.147-3.756 1.686v21.338c0 .87.523 1.504 1.55 1.501 1.921-.006 3.758.36 3.758-1.497v-5.15a35.466 35.466 0 0 1 1.675-1.396c1.683 2.612 3.79 5.603 5.787 7.666.6.619 1.588.584 2.134-.085l1.113-1.36a1.492 1.492 0 0 0-.082-1.97c-1.675-1.753-3.586-4.474-5.194-6.977"/>
        <path fill="#F08D28" fill-rule="nonzero" d="M16.641 10.766l-3.626-2.087-.41-.236a4.915 4.915 0 0 0-4.034-.397l-1.32.456-3.896 1.47C1.387 10.639 0 12.375 0 14.423v8.756c0 .902.644 1.585 1.561 1.585h1.584c.917 0 1.602-.682 1.602-1.584v-7.374c0-.815.548-1.54 1.331-1.804l1.173-.405 2.02-.698a1.936 1.936 0 0 1 1.596.158l2.148 1.248v.007l.097.056c.594.343.903.969.903 1.646v7.117c0 .902.854 1.651 1.77 1.651h1.585c.916 0 1.689-.749 1.689-1.65v-8.229c0-1.701-.925-3.276-2.418-4.136v-.001zM5.077 3.81c0-.92-.378-1.348-1.313-1.348h-2.45C.378 2.462 0 2.891 0 3.81v6.358c0 .293.4.49.574.25.815-1.12 3.721-2.014 3.721-2.014.974-.322.782-.817.782-1.827V3.81z"/>
    </g>
</svg>
