<svg xmlns="http://www.w3.org/2000/svg" width="17" height="17" viewBox="0 0 17 17">
    <path fill="#6D8090" fill-rule="nonzero" d="M15 14h-2.563v-3.795c0-.904-.02-2.069-1.335-2.069-1.336 0-1.54.985-1.54 2.003V14H7V6.197h2.461V7.26h.033C9.838 6.647 10.674 6 11.924 6 14.52 6 15 7.615 15 9.717V14zM3.5 5C2.668 5 2 4.327 2 3.5A1.5 1.5 0 1 1 3.5 5zM6 14H3V6h3v8zm9.743-14H1.254C.561 0 0 .548 0 1.225v14.55C0 16.452.561 17 1.254 17h14.487c.692 0 1.259-.548 1.259-1.225V1.225C17 .548 16.433 0 15.74 0h.003z"/>
</svg>
