<svg xmlns="http://www.w3.org/2000/svg" width="21" height="15" viewBox="0 0 21 15">
    <path fill="#6D8090" fill-rule="nonzero" d="M20.562 2.316A2.662 2.662 0 0 0 18.734.448C17.097 0 10.509 0 10.509 0S3.94-.009 2.285.448A2.662 2.662 0 0 0 .457 2.316 28.553 28.553 0 0 0 0 7.51a28.553 28.553 0 0 0 .457 5.174c.248.907.94 1.615 1.828 1.868C3.92 15 10.509 15 10.509 15s6.57 0 8.225-.45a2.662 2.662 0 0 0 1.828-1.867c.302-1.707.449-3.439.437-5.174a28.554 28.554 0 0 0-.437-5.193zM8.407 10.722V4.287l5.483 3.222-5.483 3.213z"/>
</svg>
